<svg xmlns="http://www.w3.org/2000/svg" width="2600" height="1800" viewBox="0 0 2600 1800">
  <defs>
    <style>
      .shape {
        fill: #fff;
        stroke: #111;
        stroke-width: 3;
      }
      .line {
        fill: none;
        stroke: #111;
        stroke-width: 2.6;
        stroke-linecap: round;
        stroke-linejoin: round;
      }
      text {
        fill: #111;
        font-family: "Microsoft YaHei", "SimSun", Arial, sans-serif;
        font-size: 30px;
        text-anchor: middle;
        dominant-baseline: middle;
      }
      .rel-text {
        font-size: 28px;
      }
      .cardinality {
        font-size: 28px;
      }
    </style>
  </defs>

  <rect width="2600" height="1800" fill="#fff"/>

  <!-- 属性连线 -->
  <g id="attribute-lines">
    <!-- 用户 -->
    <path class="line" d="M283 305 L380 354"/>
    <path class="line" d="M376 231 L420 335"/>
    <path class="line" d="M499 219 L490 335"/>
    <path class="line" d="M595 280 L560 347"/>
    <path class="line" d="M250 426 L380 380"/>
    <path class="line" d="M250 598 L395 430"/>
    <path class="line" d="M360 724 L430 430"/>
    <path class="line" d="M610 597 L545 430"/>
    <path class="line" d="M638 455 L560 390"/>

    <!-- 管理员 -->
    <path class="line" d="M277 1205 L380 1285"/>
    <path class="line" d="M350 1147 L420 1260"/>
    <path class="line" d="M507 1124 L495 1260"/>
    <path class="line" d="M632 1196 L560 1275"/>
    <path class="line" d="M260 1380 L380 1325"/>
    <path class="line" d="M600 1402 L560 1335"/>

    <!-- 餐桌 -->
    <path class="line" d="M1090 245 L1180 340"/>
    <path class="line" d="M1238 158 L1250 335"/>
    <path class="line" d="M1405 165 L1315 335"/>
    <path class="line" d="M1528 315 L1360 360"/>
    <path class="line" d="M1522 460 L1360 395"/>
    <path class="line" d="M1270 572 L1270 430"/>

    <!-- 订单 -->
    <path class="line" d="M1188 1117 L1225 1260"/>
    <path class="line" d="M1270 1184 L1270 1260"/>
    <path class="line" d="M1360 1118 L1325 1260"/>
    <path class="line" d="M1500 1223 L1360 1280"/>
    <path class="line" d="M1515 1385 L1360 1325"/>
    <path class="line" d="M1405 1510 L1335 1355"/>
    <path class="line" d="M1270 1602 L1270 1355"/>
    <path class="line" d="M1128 1510 L1205 1355"/>
    <path class="line" d="M1085 1390 L1180 1320"/>

    <!-- 菜品 -->
    <path class="line" d="M2035 674 L2090 805"/>
    <path class="line" d="M2195 613 L2190 790"/>
    <path class="line" d="M2334 696 L2270 805"/>
    <path class="line" d="M2075 1044 L2130 885"/>
    <path class="line" d="M2320 1038 L2245 885"/>
  </g>

  <!-- 关系连线：使用分区走线，避免穿过节点和文字 -->
  <g id="relationship-lines">
    <!-- 用户-餐桌：占用 -->
    <path class="line" d="M560 383 L785 383"/>
    <path class="line" d="M955 383 L1180 383"/>

    <!-- 管理员-用户：维护用户 -->
    <path class="line" d="M470 430 L470 810"/>
    <path class="line" d="M470 890 L470 1260"/>

    <!-- 管理员-餐桌：维护餐桌 -->
    <path class="line" d="M560 1265 L735 1265 L735 760 L760 760"/>
    <path class="line" d="M940 760 L1075 760 L1180 430"/>

    <!-- 用户-订单：下单 -->
    <path class="line" d="M560 430 L655 530 L655 1125 L825 1125"/>
    <path class="line" d="M975 1125 L1180 1285"/>

    <!-- 管理员-订单：处理订单 -->
    <path class="line" d="M560 1308 L780 1308"/>
    <path class="line" d="M960 1308 L1180 1308"/>

    <!-- 管理员-菜品：维护菜品 -->
    <path class="line" d="M560 1340 L620 1700 L2180 1700 L2180 1265"/>
    <path class="line" d="M2180 1175 L2180 885"/>

    <!-- 订单-菜品：包含 -->
    <path class="line" d="M1360 1308 L1470 1308 L1470 1115 L1675 1115"/>
    <path class="line" d="M1805 1115 L1900 1115 L1900 845 L2090 845"/>
  </g>

  <!-- 关系基数 -->
  <g id="cardinality-labels">
    <text class="cardinality" x="690" y="352">0..1</text>
    <text class="cardinality" x="1050" y="352">0..1</text>

    <text class="cardinality" x="510" y="760">N</text>
    <text class="cardinality" x="510" y="945">1</text>

    <text class="cardinality" x="690" y="1245">1</text>
    <text class="cardinality" x="1088" y="720">N</text>

    <text class="cardinality" x="700" y="1098">1</text>
    <text class="cardinality" x="1115" y="1228">N</text>

    <text class="cardinality" x="700" y="1278">1</text>
    <text class="cardinality" x="1050" y="1278">N</text>

    <text class="cardinality" x="650" y="1635">1</text>
    <text class="cardinality" x="2220" y="1135">N</text>

    <text class="cardinality" x="1518" y="1148">N</text>
    <text class="cardinality" x="1942" y="920">N</text>
  </g>

  <!-- 实体 -->
  <g id="entities">
    <rect class="shape" x="380" y="335" width="180" height="95"/>
    <text x="470" y="383">用户</text>

    <rect class="shape" x="380" y="1260" width="180" height="95"/>
    <text x="470" y="1308">管理员</text>

    <rect class="shape" x="1180" y="335" width="180" height="95"/>
    <text x="1270" y="383">餐桌</text>

    <rect class="shape" x="1180" y="1260" width="180" height="95"/>
    <text x="1270" y="1308">订单</text>

    <rect class="shape" x="2090" y="790" width="180" height="95"/>
    <text x="2180" y="838">菜品</text>
  </g>

  <!-- 关系 -->
  <g id="relationships">
    <polygon class="shape" points="870,328 955,383 870,438 785,383"/>
    <text class="rel-text" x="870" y="383">占用</text>

    <polygon class="shape" points="470,810 545,850 470,890 395,850"/>
    <text class="rel-text" x="470" y="850">维护用户</text>

    <polygon class="shape" points="850,715 940,760 850,805 760,760"/>
    <text class="rel-text" x="850" y="760">维护餐桌</text>

    <polygon class="shape" points="900,1078 975,1125 900,1172 825,1125"/>
    <text class="rel-text" x="900" y="1125">下单</text>

    <polygon class="shape" points="870,1263 960,1308 870,1353 780,1308"/>
    <text class="rel-text" x="870" y="1308">处理订单</text>

    <polygon class="shape" points="2180,1175 2270,1220 2180,1265 2090,1220"/>
    <text class="rel-text" x="2180" y="1220">维护菜品</text>

    <polygon class="shape" points="1740,1080 1805,1115 1740,1150 1675,1115"/>
    <text class="rel-text" x="1740" y="1115">包含</text>
  </g>

  <!-- 属性 -->
  <g id="attributes">
    <!-- 用户属性 -->
    <ellipse class="shape" cx="200" cy="295" rx="85" ry="38"/>
    <text x="200" y="295">编号</text>
    <ellipse class="shape" cx="350" cy="195" rx="85" ry="38"/>
    <text x="350" y="195">账号</text>
    <ellipse class="shape" cx="505" cy="180" rx="85" ry="38"/>
    <text x="505" y="180">密码</text>
    <ellipse class="shape" cx="660" cy="255" rx="85" ry="38"/>
    <text x="660" y="255">姓名</text>
    <ellipse class="shape" cx="165" cy="430" rx="85" ry="38"/>
    <text x="165" y="430">头像</text>
    <ellipse class="shape" cx="185" cy="620" rx="85" ry="38"/>
    <text x="185" y="620">角色</text>
    <ellipse class="shape" cx="340" cy="760" rx="85" ry="38"/>
    <text x="340" y="760">余额</text>
    <ellipse class="shape" cx="675" cy="620" rx="85" ry="38"/>
    <text x="675" y="620">性别</text>
    <ellipse class="shape" cx="720" cy="465" rx="88" ry="38"/>
    <text x="720" y="465">手机号</text>

    <!-- 管理员属性 -->
    <ellipse class="shape" cx="200" cy="1195" rx="85" ry="38"/>
    <text x="200" y="1195">编号</text>
    <ellipse class="shape" cx="325" cy="1110" rx="85" ry="38"/>
    <text x="325" y="1110">账号</text>
    <ellipse class="shape" cx="510" cy="1085" rx="85" ry="38"/>
    <text x="510" y="1085">密码</text>
    <ellipse class="shape" cx="705" cy="1170" rx="85" ry="38"/>
    <text x="705" y="1170">姓名</text>
    <ellipse class="shape" cx="175" cy="1390" rx="85" ry="38"/>
    <text x="175" y="1390">头像</text>
    <ellipse class="shape" cx="675" cy="1435" rx="85" ry="38"/>
    <text x="675" y="1435">角色</text>

    <!-- 餐桌属性 -->
    <ellipse class="shape" cx="1025" cy="220" rx="85" ry="38"/>
    <text x="1025" y="220">编号</text>
    <ellipse class="shape" cx="1235" cy="120" rx="85" ry="38"/>
    <text x="1235" y="120">桌号</text>
    <ellipse class="shape" cx="1455" cy="135" rx="85" ry="38"/>
    <text x="1455" y="135">规格</text>
    <ellipse class="shape" cx="1610" cy="300" rx="100" ry="38"/>
    <text x="1610" y="300">空闲状态</text>
    <ellipse class="shape" cx="1605" cy="465" rx="100" ry="38"/>
    <text x="1605" y="465">用户编号</text>
    <ellipse class="shape" cx="1270" cy="610" rx="85" ry="38"/>
    <text x="1270" y="610">用户名</text>

    <!-- 订单属性 -->
    <ellipse class="shape" cx="1160" cy="1090" rx="85" ry="38"/>
    <text x="1160" y="1090">内容</text>
    <ellipse class="shape" cx="1270" cy="1145" rx="85" ry="38"/>
    <text x="1270" y="1145">编号</text>
    <ellipse class="shape" cx="1405" cy="1090" rx="85" ry="38"/>
    <text x="1405" y="1090">总价</text>
    <ellipse class="shape" cx="1585" cy="1215" rx="100" ry="38"/>
    <text x="1585" y="1215">用户编号</text>
    <ellipse class="shape" cx="1600" cy="1390" rx="85" ry="38"/>
    <text x="1600" y="1390">状态</text>
    <ellipse class="shape" cx="1465" cy="1530" rx="85" ry="38"/>
    <text x="1465" y="1530">订单号</text>
    <ellipse class="shape" cx="1270" cy="1640" rx="85" ry="38"/>
    <text x="1270" y="1640">用户名</text>
    <ellipse class="shape" cx="1070" cy="1530" rx="100" ry="38"/>
    <text x="1070" y="1530">下单时间</text>
    <ellipse class="shape" cx="1015" cy="1395" rx="100" ry="38"/>
    <text x="1015" y="1395">用户角色</text>

    <!-- 菜品属性 -->
    <ellipse class="shape" cx="1970" cy="650" rx="85" ry="38"/>
    <text x="1970" y="650">编号</text>
    <ellipse class="shape" cx="2195" cy="575" rx="85" ry="38"/>
    <text x="2195" y="575">名称</text>
    <ellipse class="shape" cx="2400" cy="670" rx="85" ry="38"/>
    <text x="2400" y="670">描述</text>
    <ellipse class="shape" cx="2040" cy="1080" rx="85" ry="38"/>
    <text x="2040" y="1080">价格</text>
    <ellipse class="shape" cx="2380" cy="1080" rx="85" ry="38"/>
    <text x="2380" y="1080">图片</text>
  </g>
</svg>
