<?xml version="1.0" encoding="UTF-8"?>
<svg xmlns="http://www.w3.org/2000/svg" width="1600" height="900" viewBox="0 0 1600 900" role="img" aria-labelledby="title desc">
  <title id="title">订餐系统功能框图</title>
  <desc id="desc">参考模块化功能框图样式绘制的订餐系统毕业设计系统功能框图，展示用户、餐桌、菜品、订单、结算、个人中心、后台管理与文件资源等功能模块。</desc>
  <defs>
    <style>
      .bg { fill: #ffffff; }
      .top-box { fill: #f4f1f0; stroke: #111111; stroke-width: 2.8; }
      .module-box { stroke: #111111; stroke-width: 2.4; }
      .sub-box { stroke: #111111; stroke-width: 2; }
      .line { stroke: #111111; stroke-width: 2.2; fill: none; stroke-linecap: round; stroke-linejoin: round; }
      .title-text {
        font-family: "Microsoft YaHei", "PingFang SC", sans-serif;
        font-size: 28px;
        font-weight: 700;
        fill: #111111;
        text-anchor: middle;
        dominant-baseline: middle;
      }
      .module-text {
        font-family: "Microsoft YaHei", "PingFang SC", sans-serif;
        font-size: 20px;
        font-weight: 700;
        fill: #111111;
        text-anchor: middle;
        dominant-baseline: middle;
      }
      .sub-text {
        font-family: "Microsoft YaHei", "PingFang SC", sans-serif;
        font-size: 18px;
        font-weight: 600;
        fill: #111111;
        writing-mode: vertical-rl;
        text-orientation: mixed;
        letter-spacing: 1px;
      }
      .footnote {
        font-family: "Microsoft YaHei", "PingFang SC", sans-serif;
        font-size: 18px;
        fill: #111111;
        text-anchor: middle;
      }
    </style>
  </defs>

  <rect class="bg" x="0" y="0" width="1600" height="900"/>

  <rect class="top-box" x="630" y="26" width="340" height="62"/>
  <text class="title-text" x="800" y="57">订餐系统</text>

  <path class="line" d="M800 88 L800 124 L108 124 L108 170"/>
  <path class="line" d="M800 124 L304 124 L304 170"/>
  <path class="line" d="M800 124 L500 124 L500 170"/>
  <path class="line" d="M800 124 L696 124 L696 170"/>
  <path class="line" d="M800 124 L892 124 L892 170"/>
  <path class="line" d="M800 124 L1088 124 L1088 170"/>
  <path class="line" d="M800 124 L1284 124 L1284 170"/>
  <path class="line" d="M800 124 L1480 124 L1480 170"/>

  <rect class="module-box" x="40" y="170" width="136" height="54" fill="#b9d8f3"/>
  <text class="module-text" x="108" y="197">用户信息管理</text>

  <rect class="module-box" x="236" y="170" width="136" height="54" fill="#f4d97b"/>
  <text class="module-text" x="304" y="197">餐桌信息管理</text>

  <rect class="module-box" x="432" y="170" width="136" height="54" fill="#d9ef9d"/>
  <text class="module-text" x="500" y="197">菜品信息管理</text>

  <rect class="module-box" x="628" y="170" width="136" height="54" fill="#efe9f2"/>
  <text class="module-text" x="696" y="197">订单管理</text>

  <rect class="module-box" x="824" y="170" width="136" height="54" fill="#f3c7a8"/>
  <text class="module-text" x="892" y="197">账户结算管理</text>

  <rect class="module-box" x="1020" y="170" width="136" height="54" fill="#a8f1ea"/>
  <text class="module-text" x="1088" y="197">个人中心管理</text>

  <rect class="module-box" x="1216" y="170" width="136" height="54" fill="#dce7c2"/>
  <text class="module-text" x="1284" y="197">后台维护管理</text>

  <rect class="module-box" x="1412" y="170" width="136" height="54" fill="#ececec"/>
  <text class="module-text" x="1480" y="197">文件资源管理</text>

  <path class="line" d="M108 224 L108 264"/>
  <path class="line" d="M66 264 L150 264"/>
  <path class="line" d="M66 264 L66 306"/>
  <path class="line" d="M94 264 L94 306"/>
  <path class="line" d="M122 264 L122 306"/>
  <path class="line" d="M150 264 L150 306"/>
  <rect class="sub-box" x="48" y="306" width="36" height="190" fill="#b9d8f3"/>
  <rect class="sub-box" x="76" y="306" width="36" height="190" fill="#b9d8f3"/>
  <rect class="sub-box" x="104" y="306" width="36" height="190" fill="#b9d8f3"/>
  <rect class="sub-box" x="132" y="306" width="36" height="190" fill="#b9d8f3"/>
  <text class="sub-text" x="66" y="320">用户注册</text>
  <text class="sub-text" x="94" y="320">用户登录</text>
  <text class="sub-text" x="122" y="320">用户查询</text>
  <text class="sub-text" x="150" y="320">用户维护</text>

  <path class="line" d="M304 224 L304 264"/>
  <path class="line" d="M248 264 L360 264"/>
  <path class="line" d="M248 264 L248 306"/>
  <path class="line" d="M276 264 L276 306"/>
  <path class="line" d="M304 264 L304 306"/>
  <path class="line" d="M332 264 L332 306"/>
  <path class="line" d="M360 264 L360 306"/>
  <rect class="sub-box" x="230" y="306" width="36" height="190" fill="#f4d97b"/>
  <rect class="sub-box" x="258" y="306" width="36" height="190" fill="#f4d97b"/>
  <rect class="sub-box" x="286" y="306" width="36" height="190" fill="#f4d97b"/>
  <rect class="sub-box" x="314" y="306" width="36" height="190" fill="#f4d97b"/>
  <rect class="sub-box" x="342" y="306" width="36" height="190" fill="#f4d97b"/>
  <text class="sub-text" x="248" y="320">餐桌列表</text>
  <text class="sub-text" x="276" y="320">当前餐桌</text>
  <text class="sub-text" x="304" y="320">占用餐桌</text>
  <text class="sub-text" x="332" y="320">退桌管理</text>
  <text class="sub-text" x="360" y="320">状态维护</text>

  <path class="line" d="M500 224 L500 264"/>
  <path class="line" d="M444 264 L556 264"/>
  <path class="line" d="M444 264 L444 306"/>
  <path class="line" d="M472 264 L472 306"/>
  <path class="line" d="M500 264 L500 306"/>
  <path class="line" d="M528 264 L528 306"/>
  <path class="line" d="M556 264 L556 306"/>
  <rect class="sub-box" x="426" y="306" width="36" height="190" fill="#d9ef9d"/>
  <rect class="sub-box" x="454" y="306" width="36" height="190" fill="#d9ef9d"/>
  <rect class="sub-box" x="482" y="306" width="36" height="190" fill="#d9ef9d"/>
  <rect class="sub-box" x="510" y="306" width="36" height="190" fill="#d9ef9d"/>
  <rect class="sub-box" x="538" y="306" width="36" height="190" fill="#d9ef9d"/>
  <text class="sub-text" x="444" y="320">菜品浏览</text>
  <text class="sub-text" x="472" y="320">菜品新增</text>
  <text class="sub-text" x="500" y="320">菜品修改</text>
  <text class="sub-text" x="528" y="320">菜品删除</text>
  <text class="sub-text" x="556" y="320">图片维护</text>

  <path class="line" d="M696 224 L696 264"/>
  <path class="line" d="M626 264 L766 264"/>
  <path class="line" d="M626 264 L626 306"/>
  <path class="line" d="M654 264 L654 306"/>
  <path class="line" d="M682 264 L682 306"/>
  <path class="line" d="M710 264 L710 306"/>
  <path class="line" d="M738 264 L738 306"/>
  <path class="line" d="M766 264 L766 306"/>
  <rect class="sub-box" x="608" y="306" width="36" height="190" fill="#efe9f2"/>
  <rect class="sub-box" x="636" y="306" width="36" height="190" fill="#efe9f2"/>
  <rect class="sub-box" x="664" y="306" width="36" height="190" fill="#efe9f2"/>
  <rect class="sub-box" x="692" y="306" width="36" height="190" fill="#efe9f2"/>
  <rect class="sub-box" x="720" y="306" width="36" height="190" fill="#efe9f2"/>
  <rect class="sub-box" x="748" y="306" width="36" height="190" fill="#efe9f2"/>
  <text class="sub-text" x="626" y="320">购物车</text>
  <text class="sub-text" x="654" y="320">提交订单</text>
  <text class="sub-text" x="682" y="320">订单查询</text>
  <text class="sub-text" x="710" y="320">状态流转</text>
  <text class="sub-text" x="738" y="320">订单删除</text>
  <text class="sub-text" x="766" y="320">收入统计</text>

  <path class="line" d="M892 224 L892 264"/>
  <path class="line" d="M836 264 L948 264"/>
  <path class="line" d="M836 264 L836 306"/>
  <path class="line" d="M864 264 L864 306"/>
  <path class="line" d="M892 264 L892 306"/>
  <path class="line" d="M920 264 L920 306"/>
  <path class="line" d="M948 264 L948 306"/>
  <rect class="sub-box" x="818" y="306" width="36" height="190" fill="#f3c7a8"/>
  <rect class="sub-box" x="846" y="306" width="36" height="190" fill="#f3c7a8"/>
  <rect class="sub-box" x="874" y="306" width="36" height="190" fill="#f3c7a8"/>
  <rect class="sub-box" x="902" y="306" width="36" height="190" fill="#f3c7a8"/>
  <rect class="sub-box" x="930" y="306" width="36" height="190" fill="#f3c7a8"/>
  <text class="sub-text" x="836" y="320">余额查看</text>
  <text class="sub-text" x="864" y="320">后台充值</text>
  <text class="sub-text" x="892" y="320">订单结算</text>
  <text class="sub-text" x="920" y="320">余额扣减</text>
  <text class="sub-text" x="948" y="320">完成支付</text>

  <path class="line" d="M1088 224 L1088 264"/>
  <path class="line" d="M1032 264 L1144 264"/>
  <path class="line" d="M1032 264 L1032 306"/>
  <path class="line" d="M1060 264 L1060 306"/>
  <path class="line" d="M1088 264 L1088 306"/>
  <path class="line" d="M1116 264 L1116 306"/>
  <path class="line" d="M1144 264 L1144 306"/>
  <rect class="sub-box" x="1014" y="306" width="36" height="190" fill="#a8f1ea"/>
  <rect class="sub-box" x="1042" y="306" width="36" height="190" fill="#a8f1ea"/>
  <rect class="sub-box" x="1070" y="306" width="36" height="190" fill="#a8f1ea"/>
  <rect class="sub-box" x="1098" y="306" width="36" height="190" fill="#a8f1ea"/>
  <rect class="sub-box" x="1126" y="306" width="36" height="190" fill="#a8f1ea"/>
  <text class="sub-text" x="1032" y="320">资料查询</text>
  <text class="sub-text" x="1060" y="320">姓名修改</text>
  <text class="sub-text" x="1088" y="320">手机修改</text>
  <text class="sub-text" x="1116" y="320">性别修改</text>
  <text class="sub-text" x="1144" y="320">头像上传</text>

  <path class="line" d="M1284 224 L1284 264"/>
  <path class="line" d="M1228 264 L1340 264"/>
  <path class="line" d="M1228 264 L1228 306"/>
  <path class="line" d="M1256 264 L1256 306"/>
  <path class="line" d="M1284 264 L1284 306"/>
  <path class="line" d="M1312 264 L1312 306"/>
  <path class="line" d="M1340 264 L1340 306"/>
  <rect class="sub-box" x="1210" y="306" width="36" height="190" fill="#dce7c2"/>
  <rect class="sub-box" x="1238" y="306" width="36" height="190" fill="#dce7c2"/>
  <rect class="sub-box" x="1266" y="306" width="36" height="190" fill="#dce7c2"/>
  <rect class="sub-box" x="1294" y="306" width="36" height="190" fill="#dce7c2"/>
  <rect class="sub-box" x="1322" y="306" width="36" height="190" fill="#dce7c2"/>
  <text class="sub-text" x="1228" y="320">管理员管理</text>
  <text class="sub-text" x="1256" y="320">用户列表</text>
  <text class="sub-text" x="1284" y="320">分页查询</text>
  <text class="sub-text" x="1312" y="320">角色区分</text>
  <text class="sub-text" x="1340" y="320">接口维护</text>

  <path class="line" d="M1480 224 L1480 264"/>
  <path class="line" d="M1438 264 L1522 264"/>
  <path class="line" d="M1438 264 L1438 306"/>
  <path class="line" d="M1466 264 L1466 306"/>
  <path class="line" d="M1494 264 L1494 306"/>
  <path class="line" d="M1522 264 L1522 306"/>
  <rect class="sub-box" x="1420" y="306" width="36" height="190" fill="#ececec"/>
  <rect class="sub-box" x="1448" y="306" width="36" height="190" fill="#ececec"/>
  <rect class="sub-box" x="1476" y="306" width="36" height="190" fill="#ececec"/>
  <rect class="sub-box" x="1504" y="306" width="36" height="190" fill="#ececec"/>
  <text class="sub-text" x="1438" y="320">文件上传</text>
  <text class="sub-text" x="1466" y="320">图片访问</text>
  <text class="sub-text" x="1494" y="320">资源映射</text>
  <text class="sub-text" x="1522" y="320">头像存储</text>

  <text class="footnote" x="800" y="842">图 6-1  订餐系统功能框图</text>
</svg>
